<svg width="44" height="44" viewBox="0 0 44 44" fill="none" xmlns="http://www.w3.org/2000/svg">
<rect x="0.26454" y="0.26454" width="42.5909" height="42.5909" rx="6.08442" fill="#0D0D0F"/>
<rect x="0.26454" y="0.26454" width="42.5909" height="42.5909" rx="6.08442" stroke="url(#paint0_linear_4_24)" stroke-width="0.52908"/>
<path d="M26.9969 22.6319L31.4491 25.1457L22.0799 30.5843C21.7581 30.7716 21.361 30.7716 21.0385 30.5843L11.67 25.1457L16.2131 22.5792L14.5764 21.6396L10.28 24.0673C9.45448 24.5337 9.44764 25.7215 10.2677 26.1974L20.8676 32.3513C21.2961 32.5995 21.8244 32.5995 22.2522 32.3513L32.8521 26.1974C33.6728 25.7215 33.6653 24.5337 32.8398 24.0673L28.5912 21.6677" fill="url(#paint1_linear_4_24)"/>
<path d="M32.8393 16.7484L22.2353 10.76C21.8143 10.5227 21.2997 10.5227 20.8788 10.76L10.2795 16.7484C9.45399 17.2148 9.44716 18.4026 10.2672 18.8785L20.8671 25.0324C21.2956 25.2807 21.8239 25.2807 22.2517 25.0324L32.8516 18.8785C33.6723 18.4026 33.6648 17.2148 32.8393 16.7484ZM22.0801 23.2654C21.7583 23.4527 21.3612 23.4527 21.0387 23.2654L11.6702 17.8268L21.0476 12.5291C21.364 12.3499 21.7514 12.3499 22.0678 12.5291L31.4493 17.8268L22.0801 23.2654Z" fill="#2D8A64"/>
<defs>
<linearGradient id="paint0_linear_4_24" x1="21.56" y1="0" x2="21.56" y2="43.12" gradientUnits="userSpaceOnUse">
<stop stop-color="#2D8A64"/>
<stop offset="1" stop-color="#226C4E"/>
</linearGradient>
<linearGradient id="paint1_linear_4_24" x1="21.4963" y1="21.0775" x2="21.6729" y2="32.432" gradientUnits="userSpaceOnUse">
<stop offset="0.125" stop-color="#0D0D0F"/>
<stop offset="0.379808" stop-color="#226C4E"/>
<stop offset="1" stop-color="#2D8A64"/>
</linearGradient>
</defs>
</svg>
