<svg width="161" height="44" viewBox="0 0 161 44" fill="none" xmlns="http://www.w3.org/2000/svg">
<rect x="0.264514" y="0.264514" width="42.5868" height="42.5868" rx="6.08382" fill="#161828"/>
<rect x="0.264514" y="0.264514" width="42.5868" height="42.5868" rx="6.08382" stroke="url(#paint0_linear_4_22)" stroke-width="0.529028"/>
<g filter="url(#filter0_d_4_22)">
<path d="M26.9949 22.6299L31.4471 25.1437L22.078 30.5823C21.7561 30.7697 21.3591 30.7697 21.0365 30.5823L11.668 25.1437L16.2112 22.5773L14.5745 21.6377L10.278 24.0653C9.45253 24.5317 9.44569 25.7195 10.2657 26.1955L20.8657 32.3494C21.2942 32.5976 21.8224 32.5976 22.2502 32.3494L32.8501 26.1955C33.6709 25.7195 33.6634 24.5317 32.8378 24.0653L28.5892 21.6657" fill="url(#paint1_linear_4_22)"/>
</g>
<path d="M32.8373 16.7464L22.2333 10.758C21.8124 10.5208 21.2978 10.5208 20.8768 10.758L10.2776 16.7464C9.45204 17.2128 9.4452 18.4006 10.2653 18.8766L20.8652 25.0305C21.2937 25.2787 21.8219 25.2787 22.2497 25.0305L32.8496 18.8766C33.6704 18.4006 33.6629 17.2128 32.8373 16.7464ZM22.0782 23.2634C21.7563 23.4508 21.3593 23.4508 21.0367 23.2634L11.6682 17.8248L21.0456 12.5271C21.362 12.348 21.7495 12.348 22.0659 12.5271L31.4473 17.8248L22.0782 23.2634Z" fill="#7962F4"/>
<path d="M52.107 18.0955C52.107 15.1688 54.4673 13.1862 57.984 13.1862C61.2412 13.1862 63.3418 15.0036 63.5306 17.9539H61.194C61.076 16.2545 59.8722 15.2632 57.9604 15.2632C55.8126 15.2632 54.4201 16.3489 54.4201 18.0247C54.4201 19.3937 55.1989 20.2197 56.8039 20.5974L59.6126 21.2582C62.3977 21.8955 63.8138 23.4061 63.8138 25.8135C63.8138 28.8818 61.43 30.8408 57.7952 30.8408C54.3257 30.8408 52.0126 29.0235 51.871 26.0968H54.2312C54.2785 27.7253 55.6474 28.7638 57.7952 28.7638C60.0611 28.7638 61.5008 27.7017 61.5008 26.0023C61.5008 24.657 60.7691 23.8073 59.1406 23.4297L56.3319 22.7924C53.5468 22.1551 52.107 20.5502 52.107 18.0955ZM69.5999 30.5576H67.3813V20.8806H65.1155V19.016H67.3813V15.4048H69.5999V19.016H71.8658V20.8806H69.5999V30.5576ZM77.0937 30.8408C74.6155 30.8408 73.1521 29.4483 73.1521 27.3477C73.1521 25.2235 74.7335 23.9017 77.4478 23.6893L81.0825 23.4061V23.0756C81.0825 21.1402 79.926 20.4558 78.3683 20.4558C76.5037 20.4558 75.4416 21.2819 75.4416 22.6744H73.5062C73.5062 20.2669 75.4888 18.6856 78.4627 18.6856C81.3186 18.6856 83.254 20.1961 83.254 23.3117V30.5576H81.3658L81.1297 28.693C80.5397 30.0148 78.9583 30.8408 77.0937 30.8408ZM77.731 29.1179C79.8316 29.1179 81.1061 27.7489 81.1061 25.5775V24.9638L78.1558 25.1999C76.1968 25.3887 75.3944 26.144 75.3944 27.2769C75.3944 28.5042 76.2912 29.1179 77.731 29.1179ZM85.5712 24.7986C85.5712 21.1874 87.8607 18.6856 91.2358 18.6856C94.1389 18.6856 96.1688 20.3378 96.57 22.9104H94.3514C93.9737 21.4471 92.7936 20.6682 91.3066 20.6682C89.206 20.6682 87.7663 22.2732 87.7663 24.775C87.7663 27.2533 89.1116 28.8582 91.2122 28.8582C92.7936 28.8582 93.9737 28.0322 94.375 26.6632H96.5936C96.1452 29.1651 93.9973 30.8408 91.2122 30.8408C87.8135 30.8408 85.5712 28.4334 85.5712 24.7986ZM101.2 30.5576H98.9817V13.1862H101.2V24.4446L106.322 19.016H109.107L104.693 23.6185L109.084 30.5576H106.534L103.159 25.2235L101.2 27.2769V30.5576ZM113.186 30.5576H110.967V13.1862H113.186V30.5576ZM117.538 16.2781C116.735 16.2781 116.074 15.6173 116.074 14.8148C116.074 13.9887 116.735 13.3514 117.538 13.3514C118.34 13.3514 119.001 13.9887 119.001 14.8148C119.001 15.6173 118.34 16.2781 117.538 16.2781ZM116.452 30.5576V19.016H118.671V30.5576H116.452ZM125.149 30.5576H122.93V20.8806H120.664V19.016H122.93V15.4048H125.149V19.016H127.415V20.8806H125.149V30.5576ZM134.27 30.8408C130.872 30.8408 128.535 28.3862 128.535 24.7986C128.535 21.1874 130.825 18.6856 134.176 18.6856C137.457 18.6856 139.605 20.9514 139.605 24.3738V25.1999L130.683 25.2235C130.848 27.6545 132.123 28.9999 134.318 28.9999C136.041 28.9999 137.174 28.2918 137.551 26.97H139.628C139.062 29.4483 137.126 30.8408 134.27 30.8408ZM134.176 20.5502C132.241 20.5502 131.013 21.7067 130.73 23.7365H137.386C137.386 21.8247 136.135 20.5502 134.176 20.5502Z" fill="#251F7B"/>
<defs>
<filter id="filter0_d_4_22" x="7.39794" y="20.4389" width="28.3203" height="15.4111" filterUnits="userSpaceOnUse" color-interpolation-filters="sRGB">
<feFlood flood-opacity="0" result="BackgroundImageFix"/>
<feColorMatrix in="SourceAlpha" type="matrix" values="0 0 0 0 0 0 0 0 0 0 0 0 0 0 0 0 0 0 127 0" result="hardAlpha"/>
<feOffset dy="1.05806"/>
<feGaussianBlur stdDeviation="1.12842"/>
<feComposite in2="hardAlpha" operator="out"/>
<feColorMatrix type="matrix" values="0 0 0 0 0.305882 0 0 0 0 0.235294 0 0 0 0 0.905882 0 0 0 0.32 0"/>
<feBlend mode="normal" in2="BackgroundImageFix" result="effect1_dropShadow_4_22"/>
<feBlend mode="normal" in="SourceGraphic" in2="effect1_dropShadow_4_22" result="shape"/>
</filter>
<linearGradient id="paint0_linear_4_22" x1="21.5579" y1="0" x2="21.5579" y2="43.1158" gradientUnits="userSpaceOnUse">
<stop stop-color="#7962F4"/>
<stop offset="1" stop-color="#4E3CE7"/>
</linearGradient>
<linearGradient id="paint1_linear_4_22" x1="21.4944" y1="21.0756" x2="21.6709" y2="32.43" gradientUnits="userSpaceOnUse">
<stop stop-color="#161828"/>
<stop offset="0.379808" stop-color="#251F7B"/>
<stop offset="1" stop-color="#1D42A8"/>
</linearGradient>
</defs>
</svg>
