<svg width="44" height="44" viewBox="0 0 44 44" fill="none" xmlns="http://www.w3.org/2000/svg">
<rect x="0.264514" y="0.264514" width="42.5868" height="42.5868" rx="6.08382" fill="#FEFEFE"/>
<rect x="0.264514" y="0.264514" width="42.5868" height="42.5868" rx="6.08382" stroke="url(#paint0_linear_335_23921)" stroke-width="0.529028"/>
<path d="M26.9949 22.6299L31.4471 25.1437L22.078 30.5823C21.7561 30.7697 21.3591 30.7697 21.0365 30.5823L11.668 25.1437L16.2112 22.5773L14.5745 21.6377L10.278 24.0653C9.45253 24.5317 9.44569 25.7195 10.2657 26.1955L20.8657 32.3494C21.2942 32.5976 21.8224 32.5976 22.2502 32.3494L32.8501 26.1955C33.6709 25.7195 33.6634 24.5317 32.8378 24.0653L28.5892 21.6657" fill="url(#paint1_linear_335_23921)"/>
<path d="M32.8373 16.7464L22.2333 10.758C21.8124 10.5208 21.2978 10.5208 20.8768 10.758L10.2776 16.7464C9.45204 17.2128 9.4452 18.4006 10.2653 18.8766L20.8652 25.0305C21.2937 25.2787 21.8219 25.2787 22.2497 25.0305L32.8496 18.8766C33.6704 18.4006 33.6629 17.2128 32.8373 16.7464ZM22.0782 23.2634C21.7563 23.4508 21.3593 23.4508 21.0367 23.2634L11.6682 17.8248L21.0456 12.5271C21.362 12.348 21.7495 12.348 22.0659 12.5271L31.4473 17.8248L22.0782 23.2634Z" fill="#2D8A64"/>
<defs>
<linearGradient id="paint0_linear_335_23921" x1="21.5579" y1="0" x2="21.5579" y2="43.1158" gradientUnits="userSpaceOnUse">
<stop stop-color="#2D8A64"/>
<stop offset="1" stop-color="#226C4E"/>
</linearGradient>
<linearGradient id="paint1_linear_335_23921" x1="21.4944" y1="21.0756" x2="21.6709" y2="32.43" gradientUnits="userSpaceOnUse">
<stop offset="0.125" stop-color="white"/>
<stop offset="0.379808" stop-color="#226C4E"/>
<stop offset="1" stop-color="#2D8A64"/>
</linearGradient>
</defs>
</svg>
