<svg width="44" height="44" viewBox="0 0 44 44" fill="none" xmlns="http://www.w3.org/2000/svg">
<rect x="0.26454" y="0.26454" width="42.5909" height="42.5909" rx="6.08442" fill="#161828"/>
<rect x="0.26454" y="0.26454" width="42.5909" height="42.5909" rx="6.08442" stroke="url(#paint0_linear_4_24)" stroke-width="0.52908"/>
<g filter="url(#filter0_d_4_24)">
<path d="M26.9976 22.632L31.4503 25.146L22.0802 30.5851C21.7583 30.7725 21.3612 30.7725 21.0386 30.5851L11.6692 25.146L16.2128 22.5793L14.5759 21.6396L10.2791 24.0675C9.45348 24.5339 9.44665 25.7219 10.2668 26.1979L20.8677 32.3524C21.2963 32.6006 21.8246 32.6006 22.2524 32.3524L32.8534 26.1979C33.6742 25.7219 33.6667 24.5339 32.8411 24.0675L28.5921 21.6677" fill="url(#paint1_linear_4_24)"/>
</g>
<path d="M32.8406 16.748L22.2355 10.759C21.8145 10.5217 21.2999 10.5217 20.8789 10.759L10.2786 16.748C9.45299 17.2144 9.44616 18.4024 10.2663 18.8784L20.8673 25.0328C21.2958 25.2811 21.8241 25.2811 22.2519 25.0328L32.8529 18.8784C33.6737 18.4024 33.6662 17.2144 32.8406 16.748ZM22.0804 23.2656C21.7585 23.453 21.3614 23.453 21.0388 23.2656L11.6694 17.8265L21.0477 12.5283C21.3641 12.3491 21.7516 12.3491 22.0681 12.5283L31.4504 17.8265L22.0804 23.2656Z" fill="#7962F4"/>
<defs>
<filter id="filter0_d_4_24" x="7.3987" y="20.4407" width="28.3232" height="15.4126" filterUnits="userSpaceOnUse" color-interpolation-filters="sRGB">
<feFlood flood-opacity="0" result="BackgroundImageFix"/>
<feColorMatrix in="SourceAlpha" type="matrix" values="0 0 0 0 0 0 0 0 0 0 0 0 0 0 0 0 0 0 127 0" result="hardAlpha"/>
<feOffset dy="1.05816"/>
<feGaussianBlur stdDeviation="1.12853"/>
<feComposite in2="hardAlpha" operator="out"/>
<feColorMatrix type="matrix" values="0 0 0 0 0.305882 0 0 0 0 0.235294 0 0 0 0 0.905882 0 0 0 0.32 0"/>
<feBlend mode="normal" in2="BackgroundImageFix" result="effect1_dropShadow_4_24"/>
<feBlend mode="normal" in="SourceGraphic" in2="effect1_dropShadow_4_24" result="shape"/>
</filter>
<linearGradient id="paint0_linear_4_24" x1="21.56" y1="0" x2="21.56" y2="43.12" gradientUnits="userSpaceOnUse">
<stop stop-color="#7962F4"/>
<stop offset="1" stop-color="#4E3CE7"/>
</linearGradient>
<linearGradient id="paint1_linear_4_24" x1="21.4965" y1="21.0775" x2="21.6731" y2="32.4331" gradientUnits="userSpaceOnUse">
<stop stop-color="#161828"/>
<stop offset="0.379808" stop-color="#251F7B"/>
<stop offset="1" stop-color="#1D42A8"/>
</linearGradient>
</defs>
</svg>
